<?xml version="1.0" encoding="UTF-8"?>
<svg fill="none" viewBox="0 0 436 74" xmlns="http://www.w3.org/2000/svg">
<g clip-path="url(#c)">
<path d="m90.052 62c-0.8613 0-1.292-0.4307-1.292-1.292v-45.016c0-0.8613 0.4307-1.292 1.292-1.292h9.52c2.448 0 4.737 0.612 6.868 1.836 2.176 1.224 3.921 2.9013 5.236 5.032s1.972 4.4653 1.972 7.004c0 2.4027-0.612 4.624-1.836 6.664-1.179 2.04-2.879 3.808-5.1 5.304 2.765 7.5707 4.669 12.807 5.712 15.708s1.564 4.4653 1.564 4.692c0 0.3627-0.136 0.68-0.408 0.952s-0.612 0.408-1.02 0.408h-5.304c-0.635 0-1.043-0.2947-1.224-0.884l-6.732-19.108h-2.788v18.7c0 0.8613-0.4307 1.292-1.292 1.292h-5.168zm9.724-27.608c1.677 0 3.105-0.5893 4.284-1.768 1.224-1.224 1.836-2.6747 1.836-4.352s-0.612-3.1053-1.836-4.284c-1.179-1.224-2.607-1.836-4.284-1.836h-3.264v12.24h3.264zm31.598 28.152c-2.266 0-4.352-0.544-6.256-1.632-1.904-1.1333-3.422-2.652-4.556-4.556-1.088-1.904-1.632-3.9893-1.632-6.256v-8.976c0-2.2667 0.544-4.352 1.632-6.256 1.134-1.904 2.652-3.4 4.556-4.488 1.904-1.1333 3.99-1.7 6.256-1.7 2.267 0 4.352 0.5667 6.256 1.7 1.904 1.088 3.4 2.584 4.488 4.488 1.134 1.904 1.7 3.9893 1.7 6.256v8.976c0 2.2667-0.566 4.352-1.7 6.256-1.088 1.904-2.584 3.4227-4.488 4.556-1.904 1.088-3.989 1.632-6.256 1.632zm0-7.752c1.315 0 2.426-0.4533 3.332-1.36 0.907-0.952 1.36-2.0627 1.36-3.332v-8.976c0-1.3147-0.453-2.4253-1.36-3.332-0.906-0.9067-2.017-1.36-3.332-1.36-1.269 0-2.38 0.4533-3.332 1.36-0.906 0.9067-1.36 2.0173-1.36 3.332v8.976c0 1.2693 0.454 2.38 1.36 3.332 0.952 0.9067 2.063 1.36 3.332 1.36zm33.81 7.752c-2.811 0-5.123-0.816-6.936-2.448-0.272-0.272-0.454-0.272-0.544 0l-0.34 0.884c-0.227 0.68-0.726 1.02-1.496 1.02h-4.08c-0.862 0-1.292-0.4307-1.292-1.292v-45.016c0-0.8613 0.43-1.292 1.292-1.292h5.168c0.861 0 1.292 0.4307 1.292 1.292v14.484c0 0.408 0.136 0.612 0.408 0.612 0.226 0 0.453-0.1133 0.68-0.34 0.68-0.544 1.518-0.9747 2.516-1.292 1.042-0.3173 2.153-0.476 3.332-0.476 3.309 0 5.825 1.1787 7.548 3.536 1.768 2.312 2.652 5.304 2.652 8.976v8.84c0 3.672-0.884 6.6867-2.652 9.044-1.723 2.312-4.239 3.468-7.548 3.468zm-2.312-7.752c1.314 0 2.425-0.4533 3.332-1.36 0.952-0.952 1.428-2.0853 1.428-3.4v-8.84c0-1.3147-0.476-2.4253-1.428-3.332-0.907-0.952-2.018-1.428-3.332-1.428-1.315 0-2.448 0.476-3.4 1.428-0.907 0.9067-1.36 2.0173-1.36 3.332v8.84c0 1.3147 0.453 2.448 1.36 3.4 0.952 0.9067 2.085 1.36 3.4 1.36zm30.658 7.752c-2.266 0-4.352-0.544-6.256-1.632-1.904-1.1333-3.422-2.652-4.556-4.556-1.088-1.904-1.632-3.9893-1.632-6.256v-8.976c0-2.2667 0.544-4.352 1.632-6.256 1.134-1.904 2.652-3.4 4.556-4.488 1.904-1.1333 3.99-1.7 6.256-1.7 2.267 0 4.352 0.5667 6.256 1.7 1.904 1.088 3.4 2.584 4.488 4.488 1.134 1.904 1.7 3.9893 1.7 6.256v8.976c0 2.2667-0.566 4.352-1.7 6.256-1.088 1.904-2.584 3.4227-4.488 4.556-1.904 1.088-3.989 1.632-6.256 1.632zm0-7.752c1.315 0 2.426-0.4533 3.332-1.36 0.907-0.952 1.36-2.0627 1.36-3.332v-8.976c0-1.3147-0.453-2.4253-1.36-3.332-0.906-0.9067-2.017-1.36-3.332-1.36-1.269 0-2.38 0.4533-3.332 1.36-0.906 0.9067-1.36 2.0173-1.36 3.332v8.976c0 1.2693 0.454 2.38 1.36 3.332 0.952 0.9067 2.063 1.36 3.332 1.36zm42.31-4.488c0.408 0 0.725 0.136 0.952 0.408 0.272 0.2267 0.385 0.544 0.34 0.952-0.182 2.1307-0.862 4.012-2.04 5.644-1.179 1.632-2.72 2.924-4.624 3.876-1.859 0.9067-3.876 1.36-6.052 1.36-2.358 0-4.511-0.5667-6.46-1.7-1.95-1.1787-3.491-2.72-4.624-4.624-1.088-1.9493-1.632-4.0573-1.632-6.324v-8.568c0-2.2667 0.544-4.352 1.632-6.256 1.133-1.9493 2.674-3.4907 4.624-4.624 1.949-1.1787 4.102-1.768 6.46-1.768 2.176 0 4.193 0.476 6.052 1.428 1.904 0.9067 3.445 2.176 4.624 3.808 1.178 1.632 1.858 3.5133 2.04 5.644v0.136c0 0.3627-0.136 0.6573-0.408 0.884-0.227 0.2267-0.522 0.34-0.884 0.34h-5.1c-0.726 0-1.247-0.4533-1.564-1.36-0.363-0.9973-0.952-1.768-1.768-2.312s-1.814-0.816-2.992-0.816c-1.36 0-2.539 0.476-3.536 1.428-0.952 0.952-1.428 2.108-1.428 3.468v8.568c0 1.36 0.476 2.516 1.428 3.468 0.997 0.952 2.176 1.428 3.536 1.428 1.178 0 2.176-0.272 2.992-0.816s1.405-1.3147 1.768-2.312c0.317-0.9067 0.838-1.36 1.564-1.36h5.1zm19.448 12.24c-2.266 0-4.352-0.544-6.256-1.632-1.904-1.1333-3.422-2.652-4.556-4.556-1.088-1.904-1.632-3.9893-1.632-6.256v-8.976c0-2.2667 0.544-4.352 1.632-6.256 1.134-1.904 2.652-3.4 4.556-4.488 1.904-1.1333 3.99-1.7 6.256-1.7 2.267 0 4.352 0.5667 6.256 1.7 1.904 1.088 3.4 2.584 4.488 4.488 1.134 1.904 1.7 3.9893 1.7 6.256v8.976c0 2.2667-0.566 4.352-1.7 6.256-1.088 1.904-2.584 3.4227-4.488 4.556-1.904 1.088-3.989 1.632-6.256 1.632zm0-7.752c1.315 0 2.426-0.4533 3.332-1.36 0.907-0.952 1.36-2.0627 1.36-3.332v-8.976c0-1.3147-0.453-2.4253-1.36-3.332-0.906-0.9067-2.017-1.36-3.332-1.36-1.269 0-2.38 0.4533-3.332 1.36-0.906 0.9067-1.36 2.0173-1.36 3.332v8.976c0 1.2693 0.454 2.38 1.36 3.332 0.952 0.9067 2.063 1.36 3.332 1.36zm20.414 7.208c-0.862 0-1.292-0.4307-1.292-1.292v-30.192c0-0.8613 0.43-1.292 1.292-1.292h3.876c0.77 0 1.292 0.3173 1.564 0.952l0.476 1.02c0.136 0.272 0.294 0.408 0.476 0.408 0.181 0 0.408-0.136 0.68-0.408 1.677-1.6773 4.17-2.516 7.48-2.516 1.178 0 2.198 0.1587 3.06 0.476 0.362 0.1813 0.612 0.3627 0.748 0.544 0.136 0.136 0.204 0.3627 0.204 0.68v5.236c0 0.9067-0.431 1.224-1.292 0.952-1.315-0.3627-2.516-0.544-3.604-0.544-2.131 0-3.876 0.6347-5.236 1.904-1.315 1.2693-1.972 3.2187-1.972 5.848v16.932c0 0.8613-0.431 1.292-1.292 1.292h-5.168zm24.636 12.512c-0.861 0-1.292-0.4307-1.292-1.292v-42.704c0-0.8613 0.431-1.292 1.292-1.292h4.08c0.771 0 1.27 0.34 1.496 1.02l0.34 0.884c0.091 0.272 0.272 0.272 0.544 0 1.814-1.632 4.126-2.448 6.936-2.448 3.31 0 5.826 1.1787 7.548 3.536 1.768 2.312 2.652 5.304 2.652 8.976v8.84c0 3.672-0.884 6.6867-2.652 9.044-1.722 2.312-4.238 3.468-7.548 3.468-1.178 0-2.289-0.1587-3.332-0.476-0.997-0.3173-1.836-0.748-2.516-1.292-0.226-0.2267-0.453-0.34-0.68-0.34-0.272 0-0.408 0.204-0.408 0.612v12.172c0 0.8613-0.43 1.292-1.292 1.292h-5.168zm11.084-19.72c1.315 0 2.426-0.4533 3.332-1.36 0.952-0.952 1.428-2.0853 1.428-3.4v-8.84c0-1.3147-0.476-2.4253-1.428-3.332-0.906-0.952-2.017-1.428-3.332-1.428-1.314 0-2.448 0.476-3.4 1.428-0.906 0.9067-1.36 2.0173-1.36 3.332v8.84c0 1.3147 0.454 2.448 1.36 3.4 0.952 0.9067 2.086 1.36 3.4 1.36zm34.825 7.208c-0.861 0-1.292-0.4307-1.292-1.292v-45.016c0-0.8613 0.431-1.292 1.292-1.292h5.168c0.862 0 1.292 0.4307 1.292 1.292v38.556h15.844c0.862 0 1.292 0.4307 1.292 1.292v5.168c0 0.8613-0.43 1.292-1.292 1.292h-22.304zm40.416 0.544c-3.309 0-5.984-0.884-8.024-2.652-1.994-1.8133-2.992-4.284-2.992-7.412 0-3.1733 1.02-5.5987 3.06-7.276 2.04-1.7227 4.964-2.7653 8.772-3.128l5.032-0.476c0.59-0.0453 0.884-0.4307 0.884-1.156 0-2.6747-1.564-4.012-4.692-4.012-1.904 0-3.332 0.7253-4.284 2.176-0.317 0.544-0.725 0.816-1.224 0.816-0.09 0-0.317-0.0453-0.68-0.136l-4.76-1.36c-0.906-0.272-1.246-0.748-1.02-1.428 0.726-2.312 2.154-4.1933 4.284-5.644 2.176-1.4507 4.715-2.176 7.616-2.176 3.672 0 6.664 1.02 8.976 3.06s3.468 4.8507 3.468 8.432v20.536c0 0.8613-0.43 1.292-1.292 1.292h-4.148c-0.68 0-1.133-0.2947-1.36-0.884l-0.408-1.088c-0.09-0.2267-0.249-0.2267-0.476 0-1.813 1.6773-4.057 2.516-6.732 2.516zm0.612-7.48c1.406 0 2.675-0.3173 3.808-0.952 1.134-0.6347 1.882-1.632 2.244-2.992v-2.652c-0.317 0.1813-0.838 0.3173-1.564 0.408l-4.284 0.408c-1.405 0.136-2.448 0.4533-3.128 0.952-0.634 0.4533-0.952 1.1333-0.952 2.04 0 0.8613 0.34 1.5413 1.02 2.04s1.632 0.748 2.856 0.748zm35.565 7.48c-2.811 0-5.123-0.816-6.936-2.448-0.272-0.272-0.454-0.272-0.544 0l-0.34 0.884c-0.227 0.68-0.726 1.02-1.496 1.02h-4.08c-0.862 0-1.292-0.4307-1.292-1.292v-45.016c0-0.8613 0.43-1.292 1.292-1.292h5.168c0.861 0 1.292 0.4307 1.292 1.292v14.484c0 0.408 0.136 0.612 0.408 0.612 0.226 0 0.453-0.1133 0.68-0.34 0.68-0.544 1.518-0.9747 2.516-1.292 1.042-0.3173 2.153-0.476 3.332-0.476 3.309 0 5.825 1.1787 7.548 3.536 1.768 2.312 2.652 5.304 2.652 8.976v8.84c0 3.672-0.884 6.6867-2.652 9.044-1.723 2.312-4.239 3.468-7.548 3.468zm-2.312-7.752c1.314 0 2.425-0.4533 3.332-1.36 0.952-0.952 1.428-2.0853 1.428-3.4v-8.84c0-1.3147-0.476-2.4253-1.428-3.332-0.907-0.952-2.018-1.428-3.332-1.428-1.315 0-2.448 0.476-3.4 1.428-0.907 0.9067-1.36 2.0173-1.36 3.332v8.84c0 1.3147 0.453 2.448 1.36 3.4 0.952 0.9067 2.085 1.36 3.4 1.36z" fill="#F7F7F8"/>
<path d="m53.643 9.875h-47.286c-2.4753 0-4.4819 2.0066-4.4819 4.4819v47.286c0 2.4753 2.0066 4.4819 4.4819 4.4819h47.286c2.4753 0 4.4819-2.0066 4.4819-4.4819v-47.286c0-2.4753-2.0066-4.4819-4.4819-4.4819z" fill="url(#b)"/>
<mask id="a" x="4.79297" y="15.8398" width="50" height="44" fill="black" maskUnits="userSpaceOnUse">
<rect x="4.793" y="15.84" width="50" height="44" fill="#fff"/>
<path d="m45.014 26.645c0.5822-0.1107 1.192-0.0553 1.7603 0.173 3.2848 1.3493 5.4122 4.4907 5.433 8.0058v0.9895c0 3.522-2.1205 6.6635-5.4053 8.0058-0.3812 0.1523-0.7831 0.2284-1.1781 0.2284-0.3673 0-0.7277-0.0692-1.0672-0.1938-0.1386-0.0553-0.2842 0.0692-0.2564 0.2145 0.0693 0.3668 0.0762 0.7473 0.0069 1.1279-1.2405 6.9333-7.2557 11.964-14.31 11.964s-13.07-5.0305-14.31-11.964c-0.0693-0.3806-0.0624-0.7611 0.0069-1.1279 0.0277-0.1453-0.1178-0.2698-0.2564-0.2145-0.3465 0.1246-0.7068 0.1938-1.0672 0.1938-0.395 0-0.79-0.0761-1.1712-0.2284-3.2848-1.3493-5.4053-4.4907-5.4053-8.0058v-0.9895c0-3.522 2.1206-6.6634 5.4053-8.0058 0.5683-0.2352 1.1781-0.2837 1.7602-0.173 0.1109 0.0208 0.2149-0.0415 0.2357-0.1522 0.79-3.8957 3.9431-6.9471 7.9278-7.5422 1.8711-0.2837 3.7561-0.0208 5.447 0.7542 0.4504 0.2076 0.9355 0.3114 1.4206 0.3114s0.9702-0.1038 1.4206-0.3114c1.691-0.7681 3.5759-1.031 5.447-0.7542 3.9847 0.5951 7.1378 3.6465 7.9279 7.5422 0.0207 0.1107 0.1178 0.173 0.2286 0.1522z"/>
</mask>
<path d="m45.014 26.645c0.5822-0.1107 1.192-0.0553 1.7603 0.173 3.2848 1.3493 5.4122 4.4907 5.433 8.0058v0.9895c0 3.522-2.1205 6.6635-5.4053 8.0058-0.3812 0.1523-0.7831 0.2284-1.1781 0.2284-0.3673 0-0.7277-0.0692-1.0672-0.1938-0.1386-0.0553-0.2842 0.0692-0.2564 0.2145 0.0693 0.3668 0.0762 0.7473 0.0069 1.1279-1.2405 6.9333-7.2557 11.964-14.31 11.964s-13.07-5.0305-14.31-11.964c-0.0693-0.3806-0.0624-0.7611 0.0069-1.1279 0.0277-0.1453-0.1178-0.2698-0.2564-0.2145-0.3465 0.1246-0.7068 0.1938-1.0672 0.1938-0.395 0-0.79-0.0761-1.1712-0.2284-3.2848-1.3493-5.4053-4.4907-5.4053-8.0058v-0.9895c0-3.522 2.1206-6.6634 5.4053-8.0058 0.5683-0.2352 1.1781-0.2837 1.7602-0.173 0.1109 0.0208 0.2149-0.0415 0.2357-0.1522 0.79-3.8957 3.9431-6.9471 7.9278-7.5422 1.8711-0.2837 3.7561-0.0208 5.447 0.7542 0.4504 0.2076 0.9355 0.3114 1.4206 0.3114s0.9702-0.1038 1.4206-0.3114c1.691-0.7681 3.5759-1.031 5.447-0.7542 3.9847 0.5951 7.1378 3.6465 7.9279 7.5422 0.0207 0.1107 0.1178 0.173 0.2286 0.1522z" fill="#140E14"/>
<path d="m46.774 26.818 0.8331-2.0281-0.0156-0.0064-0.8175 2.0345zm-1.7603-0.173 0.4035 2.1552 0.0062-0.0012-0.4097-2.154zm-0.2286-0.1522 2.1549-0.4047-0.0029-0.0155-0.0032-0.0156-2.1488 0.4358zm-7.9279-7.5422 0.3238-2.1686-3e-3 -4e-4 -0.3208 2.169zm-5.447 0.7542-0.9067-1.9963-0.0109 5e-3 0.9176 1.9913zm-2.8412 0 0.9176-1.9913-0.0041-0.0019-0.9135 1.9932zm-5.447-0.7542 0.3239 2.1685 0.0048-7e-4 -0.3287-2.1678zm-7.9278 7.5422-2.1489-0.4358-0.0031 0.0156-3e-3 0.0155 2.155 0.4047zm-0.2357 0.1522-0.4096 2.154 0.0062 0.0012 0.4034-2.1552zm-1.7602 0.173 0.8295 2.0297 0.0092-0.0038-0.8387-2.0259zm0 17.001-0.8331 2.0282 0.0099 0.0041 0.01 0.0039 0.8132-2.0362zm2.2384 0.0346 0.7417 2.0634 0.036-0.013 0.0355-0.0142-0.8132-2.0362zm0.2564 0.2145-2.1537-0.4108-8e-4 0.0037 2.1545 0.4071zm-0.0069 1.1279 2.1583-0.3861-0.0012-0.0067-2.1571 0.3928zm28.621 0-2.1571-0.3928-0.0012 0.0067 2.1583 0.3861zm-0.0069-1.1279 2.1544-0.4071-7e-4 -0.0037-2.1537 0.4108zm0.2564-0.2145-0.8133 2.0362 0.029 0.0116 0.0292 0.0107 0.7551-2.0585zm2.2453-0.0346 0.8132 2.0362 0.0081-0.0032 0.0081-0.0033-0.8294-2.0297zm5.4053-8.9953h2.1927l-1e-4 -0.0129-2.1926 0.0129zm-4.6155-10.04c-0.9604-0.3859-1.9963-0.481-2.9874-0.2925l0.8193 4.308c0.1731-0.0329 0.3569-0.0173 0.533 0.0535l1.6351-4.069zm-2.9812-0.2936c0.4557-0.0854 0.9892-0.0137 1.4613 0.2972 0.4797 0.3159 0.7744 0.8004 0.8684 1.301l-4.3099 0.8094c0.2576 1.3714 1.5588 2.1326 2.7871 1.9027l-0.8069-4.3103zm2.3236 1.5671c-0.9709-4.7875-4.8438-8.5418-9.7529-9.275l-0.6477 4.3371c3.0604 0.4571 5.4938 2.8057 6.1029 5.8095l4.2977-0.8716zm-9.7559-9.2754c-2.2826-0.3377-4.5943-0.018-6.6745 0.9269l1.8135 3.9926c1.3016-0.5912 2.7598-0.7974 4.2193-0.5815l0.6417-4.338zm-6.6854 0.9319c-0.1589 0.0732-0.3305 0.1101-0.503 0.1101v4.3852c0.7977 0 1.5963-0.1707 2.3383-0.5127l-1.8353-3.9826zm-0.503 0.1101c-0.1725 0-0.3441-0.0369-0.503-0.1101l-1.8353 3.9826c0.742 0.342 1.5406 0.5127 2.3383 0.5127v-4.3852zm-0.5071-0.112c-2.0841-0.9552-4.4012-1.2757-6.6892-0.9288l0.6574 4.3356c1.4543-0.2205 2.907-0.0152 4.2047 0.5796l1.8271-3.9864zm-6.6843-0.9296c-4.9091 0.7332-8.782 4.4875-9.7529 9.275l4.2977 0.8716c0.6092-3.0038 3.0425-5.3524 6.1029-5.8095l-0.6477-4.3371zm-9.759 9.3061c0.2301-1.225 1.3955-1.7718 2.3228-1.5982l-0.8069 4.3103c1.1491 0.2151 2.5224-0.4562 2.794-1.9027l-4.3099-0.8094zm2.329-1.5971c-0.974-0.1852-2.0202-0.108-3.0086 0.3012l1.6774 4.0517c0.1482-0.0614 0.3217-0.0811 0.5119-0.0449l0.8193-4.308zm-2.9993 0.2974c-4.1013 1.676-6.7685 5.6143-6.7685 10.035h4.3852c0-2.6229 1.5739-4.9674 4.0422-5.9761l-1.6589-4.0593zm-6.7685 10.035v0.9895h4.3852v-0.9895h-4.3852zm0 0.9895c0 4.4159 2.6684 8.3513 6.7648 10.034l1.6662-4.0563c-2.4731-1.0159-4.0458-3.3634-4.0458-5.9777h-4.3852zm6.7847 10.042c0.6342 0.2533 1.3049 0.3848 1.9844 0.3848v-4.3852c-0.1105 0-0.2299-0.0208-0.3579-0.072l-1.6265 4.0724zm1.9844 0.3848c0.6409 0 1.252-0.1229 1.8089-0.323l-1.4834-4.1267c-0.1361 0.0489-0.2457 0.0645-0.3255 0.0645v4.3852zm1.8804-0.3502c-1.5321 0.612-2.9947-0.743-2.7105-2.2325l4.3075 0.8217c0.3396-1.7801-1.4141-3.3842-3.2234-2.6616l1.6264 4.0724zm-2.7113-2.2288c-0.1159 0.6135-0.1301 1.2658-0.0095 1.9278l4.3142-0.7856c-0.018-0.0991-0.0184-0.208 0.0043-0.3279l-4.309-0.8143zm-0.0107 1.9212c1.4278 7.9805 8.3539 13.77 16.469 13.77v-4.3852c-5.9946 0-11.099-4.2713-12.152-10.157l-4.3166 0.7723zm16.469 13.77c8.1148 0 15.041-5.7897 16.469-13.77l-4.3166-0.7723c-1.0531 5.886-6.1574 10.157-12.152 10.157v4.3852zm16.468-13.764c0.1206-0.662 0.1064-1.3142-0.0096-1.9278l-4.3089 0.8142c0.0227 0.12 0.0223 0.2289 0.0043 0.328l4.3142 0.7856zm-0.0103-1.9315c0.2842 1.4894-1.1783 2.8445-2.7106 2.2325l1.6265-4.0724c-1.8094-0.7226-3.563 0.8816-3.2234 2.6616l4.3075-0.8217zm-2.6524 2.2548c0.5634 0.2067 1.1788 0.3279 1.8223 0.3279v-4.3852c-0.0911 0-0.1964-0.0172-0.3122-0.0597l-1.5101 4.117zm1.8223 0.3279c0.6746 0 1.3525-0.1296 1.9913-0.3848l-1.6265-4.0724c-0.1235 0.0494-0.2495 0.072-0.3648 0.072v4.3852zm2.0075-0.3913c4.1013-1.6761 6.7685-5.6144 6.7685-10.036h-4.3852c0 2.6229-1.5739 4.9675-4.0422 5.9762l1.6589 4.0593zm6.7685-10.036v-0.9895h-4.3852v0.9895h4.3852zm0-1.0024c-0.0261-4.4083-2.6978-8.339-6.7925-10.021l-1.6663 4.0563c2.4749 1.0165 4.0582 3.3687 4.0737 5.9906l4.3851-0.0259z" fill="#fff" fill-opacity=".15" mask="url(#a)"/>
<path d="m45.776 41.377c2.2038-0.8995 3.763-3.0376 3.763-5.5563v-0.9895c0-2.5187-1.5592-4.6637-3.763-5.5632-0.291-0.1177-0.6098 0.0968-0.6098 0.4082v11.292c0 0.3183 0.3188 0.5259 0.6098 0.4083z" fill="#fff"/>
<path d="m41.826 41.647c-0.2079-2.5602-1.2266-4.8852-2.8067-6.7258-0.1801-0.2145-0.1316-0.5051 0.104-0.6573 2.1483-1.37 3.4927-3.8818 3.167-6.6773-0.3534-3.0445-2.7859-5.5632-5.8212-6.0199-1.4206-0.2076-2.7789 0.0069-3.957 0.5467-0.8108 0.3736-1.6701 0.5535-2.5294 0.5535-0.8663 0-1.7256-0.1868-2.5295-0.5535-1.178-0.5398-2.5363-0.7612-3.957-0.5467-3.0353 0.4498-5.4677 2.9754-5.8211 6.0199-0.3257 2.8024 1.0187 5.3073 3.167 6.6773 0.2356 0.1522 0.2841 0.4428 0.1039 0.6573-1.5731 1.8406-2.5987 4.1656-2.8066 6.7258-0.0208 0.2629 0.1732 0.4843 0.4366 0.4843h22.813c0.2564 0 0.4574-0.2283 0.4366-0.4843zm-17.734-14.655h11.781c0.6375 0 1.1573 0.5189 1.1573 1.1555s-0.5198 1.1556-1.1573 1.1556h-11.781c-0.6376 0-1.1573-0.519-1.1573-1.1556s0.5197-1.1555 1.1573-1.1555zm6.7636 7.5629c0-0.7612 0.6167-1.377 1.379-1.377s1.3791 0.6158 1.3791 1.377c0 0.7611-0.6168 1.3769-1.3791 1.3769s-1.379-0.6158-1.379-1.3769zm-3.1255-1.377c-0.7623 0-1.3791 0.6158-1.3791 1.377 0 0.7611 0.6168 1.3769 1.3791 1.3769s1.379-0.6158 1.379-1.3769c0-0.7612-0.6167-1.377-1.379-1.377z" clip-rule="evenodd" fill="#fff" fill-rule="evenodd"/>
<path d="m18.278 44.733c0.9979 5.5563 5.8489 9.7841 11.705 9.7841s10.707-4.2208 11.705-9.7841c0.0485-0.2768-0.1594-0.5259-0.4366-0.5259h-22.536c-0.2772 0-0.4851 0.2561-0.4366 0.5259z" fill="#fff"/>
<path d="m14.196 41.377c0.291 0.1176 0.6098-0.0969 0.6098-0.4083v-11.299c0-0.3183-0.3188-0.5259-0.6098-0.4083-2.2038 0.9065-3.763 3.0446-3.763 5.5633v0.9964c0 2.5117 1.5592 4.6568 3.763 5.5563z" fill="#fff"/>
</g>
<defs>
<linearGradient id="b" x1="29.997" x2="29.997" y1="34.206" y2="122.93" gradientUnits="userSpaceOnUse">
<stop stop-color="#7850FA" offset="0"/>
<stop stop-color="#1B151B" offset=".94"/>
</linearGradient>
<clipPath id="c">
<rect width="436" height="74" fill="#fff"/>
</clipPath>
</defs>
</svg>
