<svg width="24" height="24" viewBox="0 0 24 24" fill="none" xmlns="http://www.w3.org/2000/svg">
<path fill-rule="evenodd" clip-rule="evenodd" d="M8.38549 6.80389H15.6145C16.0099 6.80389 16.3246 6.48497 16.3288 6.09375C16.3288 5.70254 16.0099 5.38361 15.6187 5.38361H8.38549C7.99427 5.38361 7.67535 5.70254 7.67535 6.09375C7.67535 6.48497 7.99427 6.80389 8.38549 6.80389ZM12.54 10.0314C12.54 10.4992 12.9185 10.8776 13.3862 10.8776C13.8497 10.8776 14.2324 10.4992 14.2324 10.0314C14.2324 9.56365 13.854 9.18519 13.3862 9.18519C12.9185 9.18519 12.54 9.56365 12.54 10.0314ZM9.77175 10.0314C9.77175 10.4992 10.1502 10.8776 10.618 10.8776C11.0857 10.8776 11.4642 10.4992 11.4642 10.0314C11.4642 9.56365 11.0857 9.18519 10.618 9.18519C10.1502 9.18519 9.77175 9.56365 9.77175 10.0314ZM19.5521 5.74931C19.752 7.46725 18.927 9.01085 17.6088 9.85281C17.4642 9.94636 17.4344 10.125 17.545 10.261C18.5103 11.3922 19.1396 12.8209 19.2672 14.3943C19.2842 14.5559 19.1609 14.692 18.9993 14.692H5.00063C4.8433 14.692 4.71998 14.5516 4.73274 14.3943C4.86456 12.8209 5.48965 11.3922 6.45918 10.261C6.56974 10.1292 6.53998 9.95061 6.3954 9.85706C4.98788 8.95982 4.14166 7.26739 4.50311 5.41338C4.84755 3.64015 6.25082 2.30918 8.0368 2.04978C8.90427 1.92221 9.72923 2.05829 10.4479 2.38572C11.4387 2.83646 12.5613 2.84072 13.5521 2.38572C14.275 2.05403 15.1084 1.91796 15.9802 2.04978C17.8427 2.32618 19.3352 3.87829 19.5521 5.74931ZM5.08526 15.9676H18.9138C19.0839 15.9676 19.2115 16.1207 19.1817 16.2908C18.5737 19.7054 15.5928 22.3036 11.9995 22.3036C8.40633 22.3036 5.42544 19.7096 4.81736 16.2908C4.78759 16.1207 4.91516 15.9676 5.08526 15.9676ZM2.30902 6.77839C0.956774 7.33119 0 8.64942 0 10.1973V10.8053C0 12.3532 0.961026 13.6672 2.30902 14.2242C2.48761 14.2965 2.68322 14.1689 2.68322 13.9733V7.02928C2.68322 6.83792 2.48761 6.7061 2.30902 6.77839ZM21.3168 7.02927C21.3168 6.83366 21.5124 6.70609 21.691 6.77838C23.0432 7.33543 24 8.64941 24 10.1973V10.8053C24 12.3532 23.0432 13.6714 21.691 14.2242C21.5124 14.2965 21.3168 14.1647 21.3168 13.9733V7.02927Z" fill="#DFDCE0"/>
</svg>
